<svg viewBox="0 0 579.01 87.88" xmlns="http://www.w3.org/2000/svg"><g fill="#b1b9c3"><path d="m0 1 31.87 1.07a8.07 8.07 0 0 1 1.47.27c19.3 4.38 25.05 20.16 13.26 36.31a11.34 11.34 0 0 0 -.76 1.54c11.6 5.81 15.62 15.43 13.16 27.73a22.75 22.75 0 0 1 -22.07 18.15q-18.46.46-36.93.93zm17.66 48.23v18.18c0 1.29.19 2.58.35 4.46 5.6 0 11 .49 16.36-.14s7.43-4.62 7.2-11.26c-.22-6.43-2.46-9.78-7.72-10.4-5.04-.6-10.17-.56-16.19-.84zm.34-14.55c10.38.72 15.5-.23 16.36-4.05.81-3.6 1.18-8.58-.69-11.23-3.71-5.25-10.09-3-15.67-3.33z"/><path d="m492.69 44c-.18-23.9 19.07-43.91 42.36-44 24-.12 43.8 19.25 43.95 43 .15 24.85-19 44.69-43.21 44.84-23.58.16-42.91-19.49-43.1-43.84zm42.9-26a25.42 25.42 0 0 0 -25.52 25.78c0 14.76 11.21 26.2 25.69 26.17a25.8 25.8 0 0 0 25.9-26.11 25.59 25.59 0 0 0 -26.07-25.84z"/><path d="m153 87c-7.56 0-13.68.23-19.76-.16-1.48-.1-3.21-2-4.17-3.46-6-9.31-11.89-18.75-17.8-28.14l-1.24.39v31h-17.54v-85.76c13 .34 25.79-1.43 38.24 2.74 9.56 3.2 15 10.56 15.41 20.54q.77 18.32-13.8 24.82c-1.35.6-2.76 1.07-4.84 1.87zm-43-46.87c6.6-.54 13.23.32 17-5.86 2.41-3.93 3.15-8.81.13-12.73-4.36-5.66-10.87-4.24-17.16-4.31z"/><path d="m471 23.86c-14.41-5.09-28.57-12-40.28 3.53-7.58 10-7.07 23.5.63 33.39 8.5 10.92 17 11.61 39.64 3.07 0 5.27.1 10.39-.09 15.5a4.05 4.05 0 0 1 -1.88 3c-22.67 10.53-50.51 4-59.16-22-6.27-19.14-1.57-45.35 20.75-55.7 11.39-5.28 23.13-5.12 34.99-1.77 4 1.13 6 3.4 5.54 8-.46 4.12-.14 8.28-.14 12.98z"/><path d="m285 .38v17.42h-16.86v68.79h-17.59v-68.75h-16.76v-17.46z"/><path d="m354 52.17v25.6h-16.9c0-6.86-.36-13.8.13-20.68.31-4.35-1.37-5.09-5.07-5-6.78.19-13.58.05-21 .05 0-4.93-.22-9.55.17-14.13.09-1 2.22-2.67 3.48-2.73 6.15-.29 12.32-.27 18.47-.07 3.1.1 4.07-1 4-4-.16-6.81 0-13.62 0-20.95h16.43v24.9h25.52v17z"/><path d="m184.53 1.15h16.9v85.46h-16.9z"/></g></svg>